<?xml version="1.0" encoding="utf-8"?>
<!-- Generator: Adobe Illustrator 28.3.0, SVG Export Plug-In . SVG Version: 6.00 Build 0)  -->
<svg version="1.1" id="Capa_1" xmlns="http://www.w3.org/2000/svg" xmlns:xlink="http://www.w3.org/1999/xlink" x="0px" y="0px"
	 viewBox="0 0 731.4 136.7" style="enable-background:new 0 0 731.4 136.7;" xml:space="preserve">
<style type="text/css">
	.st0{fill:#FFFFFF;}
	.st1{fill:#76B900;}
</style>
<path class="st0" d="M446.9,25.5v91.2h25.7V25.5L446.9,25.5z M244.4,25.3v91.3h26V45.7l20.2,0.1c6.6,0,11.3,1.6,14.5,5
	c4.1,4.3,5.7,11.4,5.7,24.1v41.7H336V66.2c0-36-23-40.9-45.4-40.9H244.4z M488.4,25.5v91.2h41.7c22.3,0,29.5-3.7,37.3-12
	c5.6-5.8,9.1-18.6,9.1-32.6c0-12.8-3-24.3-8.3-31.4c-9.4-12.8-23.2-15.2-43.7-15.2L488.4,25.5z M513.9,45.2h11.1
	c16.1,0,26.4,7.2,26.4,25.9s-10.4,26-26.4,26h-11.1V45.2z M409.8,25.5l-21.5,72.3l-20.6-72.3h-27.8l29.4,91.2h37.1L436,25.5
	L409.8,25.5z M588.6,116.7h25.7V25.5h-25.7V116.7z M660.8,25.5l-35.9,91.1h25.3l5.7-16.2h42.5l5.4,16.1h27.6l-36.2-91H660.8z
	 M677.5,42.1l15.6,42.7h-31.7L677.5,42.1z"/>
<path class="st1" d="M78.3,40.6V28.1c1.2-0.1,2.5-0.2,3.7-0.2c34.3-1.1,56.8,29.5,56.8,29.5s-24.3,33.7-50.3,33.7
	c-3.5,0-6.9-0.5-10.1-1.6v-38c13.4,1.6,16.1,7.5,24,20.9l17.9-15c0,0-13.1-17.1-35-17.1C82.9,40.2,80.6,40.4,78.3,40.6 M78.3-0.8
	v18.7l3.7-0.2c47.7-1.6,78.8,39.1,78.8,39.1s-35.7,43.4-72.9,43.4c-3.2,0-6.4-0.3-9.6-0.9v11.6c2.6,0.3,5.3,0.5,8,0.5
	c34.6,0,59.7-17.7,83.9-38.6c4,3.2,20.5,11.1,23.9,14.5c-23,19.3-76.7,34.9-107.2,34.9c-2.9,0-5.7-0.2-8.5-0.5v16.3H210V-0.8H78.3z
	 M78.3,89.5v9.9c-32-5.7-40.9-39-40.9-39s15.4-17,40.9-19.8v10.8h-0.1c-13.4-1.6-23.9,10.9-23.9,10.9S60.3,83.4,78.3,89.5 M21.5,59
	c0,0,18.9-28,56.9-30.9V17.9c-42,3.4-78.4,39-78.4,39s20.6,59.5,78.3,64.9v-10.8C35.9,105.7,21.5,59,21.5,59z"/>
</svg>
