<?xml version="1.0" encoding="utf-8"?>
<!-- Generator: Adobe Illustrator 28.3.0, SVG Export Plug-In . SVG Version: 6.00 Build 0)  -->
<svg version="1.1" id="Art_3.0" xmlns="http://www.w3.org/2000/svg" xmlns:xlink="http://www.w3.org/1999/xlink" x="0px" y="0px"
	 viewBox="0 0 48 48" style="enable-background:new 0 0 48 48;" xml:space="preserve">
<style type="text/css">
	.st0{fill:#FFFFFF;}
</style>
<path class="st0" d="M24,21.5c-5.8,0-10.5,4.7-10.5,10.5S18.2,42.5,24,42.5S34.5,37.8,34.5,32S29.8,21.5,24,21.5z M24,22.5
	c2.3,0,4.3,0.8,5.9,2.1c0.2,0.5,0.5,1,0.6,1.5l1.6,1c0.2,0.4,0.5,0.8,0.6,1.2l-2-1.3c0.1,0.4,0.1,0.9,0.2,1.3l2.3,1.5
	c0.1,0.3,0.1,0.6,0.2,0.9L31,29.2c0,0.4,0,0.8-0.1,1.1l2.6,1.7l0,0c0,0.3,0,0.5,0,0.8L30.8,31c-0.1,0.3-0.2,0.7-0.3,1l2.8,1.8
	c0,0.2-0.1,0.5-0.2,0.7l-2.9-1.8c-0.1,0.3-0.3,0.6-0.4,0.9l3,1.9c-0.1,0.2-0.2,0.4-0.3,0.6l-3-1.9c-0.2,0.3-0.4,0.6-0.6,0.8l3.1,2
	c-0.1,0.2-0.2,0.4-0.4,0.6l-3.1-2c-0.2,0.3-0.5,0.5-0.7,0.7l3.2,2.1c-0.2,0.2-0.3,0.3-0.5,0.5l-3.3-2.1c-0.3,0.2-0.6,0.4-0.9,0.6
	l3.3,2.1c-0.2,0.1-0.4,0.3-0.6,0.4l-3.4-2.2c-0.3,0.2-0.7,0.3-1.1,0.5l3.5,2.2c-0.2,0.1-0.5,0.2-0.7,0.3l-3.5-2.3
	c-0.4,0.1-0.9,0.2-1.4,0.3l3.7,2.4c-0.3,0.1-0.6,0.1-1,0.2L21.4,39c-0.1,0-0.3,0-0.4,0c-0.6,0-1.1-0.1-1.7-0.1l4.1,2.6
	c-0.6,0-1.1-0.1-1.6-0.2L17,38.1c-0.1-0.1-0.3-0.1-0.4-0.2c-1.3-1.6-2.1-3.7-2.1-6C14.5,26.8,18.8,22.5,24,22.5L24,22.5z M42.7,9
	L38,4.3L34.3,8l0.9,0.9l-2,1l4,4l1-2l0.9,0.9L42.7,9L42.7,9z M38,5.7L41.3,9L39,11.3L35.7,8L38,5.7z M36.9,12.2l-2-2L36,9.7l1.5,1.5
	C37.4,11.1,36.9,12.2,36.9,12.2z M31.5,12.5h3v3h-1v-1.3L27,20.7L14.3,10.1l0.6-0.8l12,10l5.8-5.8h-1.3L31.5,12.5L31.5,12.5z
	 M31.5,17.5h3v3h-1v-1.3L31,21.7L30.3,21l2.5-2.5h-1.3V17.5z M9,4.5C7.1,4.5,5.5,6.1,5.5,8c0,1.4,0.8,2.6,2,3.1v2.4h1V14h1v-0.5h1
	v-2.4c1.2-0.6,2-1.8,2-3.1C12.5,6.1,10.9,4.5,9,4.5z M9.5,11.5v1h-1v-1H9.5z M9.9,10.3l0.8-1.6L9.8,8.3L9,9.9L8.2,8.3L7.3,8.8
	l0.8,1.6C7.2,10,6.5,9.1,6.5,8c0-1.4,1.1-2.5,2.5-2.5s2.5,1.1,2.5,2.5C11.5,9.1,10.8,10,9.9,10.3z"/>
</svg>
