<?xml version="1.0" encoding="utf-8"?>
<!-- Generator: Adobe Illustrator 28.3.0, SVG Export Plug-In . SVG Version: 6.00 Build 0)  -->
<svg version="1.1" id="Note" xmlns="http://www.w3.org/2000/svg" xmlns:xlink="http://www.w3.org/1999/xlink" x="0px" y="0px"
	 viewBox="0 0 48 48" style="enable-background:new 0 0 48 48;" xml:space="preserve">
<style type="text/css">
	.st0{fill:#FFFFFF;}
</style>
<path class="st0" d="M34.4,26.4l1.5,5.5l-5.5,1.5l-1.2-0.7l4.8-1.3l-10-5.8l-10,5.8l4.8,1.3l-1.2,0.7l-5.5-1.5l1.5-5.5l1.2-0.7
	l-1.3,4.8l10-5.8V13.2L20,16.7v-1.4l4-4l4,4v1.4l-3.5-3.5v11.5l10,5.8l-1.3-4.8L34.4,26.4z M40.7,32c0.4,0.5,0.5,1.2,0.2,1.8
	c-0.3,0.5-0.8,0.7-1.3,0.7c-0.1,0-0.2,0-0.3,0c-3.5,5-9.1,8-15.3,8s-11.8-3-15.3-8c-0.1,0-0.2,0-0.3,0c-0.5,0-1-0.3-1.3-0.7
	c-0.3-0.6-0.2-1.3,0.2-1.8c-1.2-2.5-1.8-5.2-1.8-8c0-9.7,7.5-17.7,17.1-18.4C22.8,5,23.3,4.5,24,4.5s1.2,0.5,1.4,1.1
	C35,6.3,42.5,14.3,42.5,24C42.5,26.8,41.9,29.5,40.7,32z M23.5,6c0,0.3,0.2,0.5,0.5,0.5s0.5-0.2,0.5-0.5l0,0c0-0.3-0.2-0.5-0.5-0.5
	S23.5,5.7,23.5,6L23.5,6z M8.7,33.4C8.9,33.3,9,33,8.8,32.8c-0.1-0.1-0.2-0.2-0.3-0.2H8.4c-0.1,0-0.2,0-0.2,0.1
	c-0.3,0-0.4,0.3-0.2,0.5C8.1,33.5,8.4,33.6,8.7,33.4L8.7,33.4z M38.4,33.9c-0.4-0.5-0.4-1.1-0.1-1.7c0.2-0.3,0.5-0.6,0.9-0.7
	c0.2-0.1,0.4-0.1,0.6,0c1.1-2.4,1.7-4.9,1.7-7.5c0-9.2-7-16.7-16.1-17.4c-0.2,0.5-0.8,0.9-1.4,0.9s-1.2-0.4-1.4-0.9
	C13.5,7.3,6.5,14.8,6.5,24c0,2.6,0.6,5.2,1.7,7.5c0.2,0,0.4,0,0.6,0c0.4,0.1,0.7,0.4,0.9,0.7c0.3,0.5,0.2,1.2-0.1,1.7
	c3.3,4.8,8.6,7.6,14.4,7.6S35.1,38.7,38.4,33.9z M39.8,32.6L39.8,32.6c-0.1,0-0.2-0.1-0.3-0.1h-0.1c-0.1,0-0.2,0.1-0.3,0.2
	c-0.1,0.2-0.1,0.5,0.2,0.7c0.2,0.1,0.5,0.1,0.7-0.2C40.2,33,40.1,32.7,39.8,32.6L39.8,32.6z"/>
</svg>
