<?xml version="1.0" encoding="utf-8"?>
<!-- Generator: Adobe Illustrator 28.3.0, SVG Export Plug-In . SVG Version: 6.00 Build 0)  -->
<svg version="1.1" id="Art_3.0" xmlns="http://www.w3.org/2000/svg" xmlns:xlink="http://www.w3.org/1999/xlink" x="0px" y="0px"
	 viewBox="0 0 48 48" style="enable-background:new 0 0 48 48;" xml:space="preserve">
<style type="text/css">
	.st0{fill:#FFFFFF;}
</style>
<g>
	<path class="st0" d="M31.2,16.5c-1.9-1.7-4.3-2.7-7.1-2.7c-5.8,0-10.5,4.7-10.5,10.5s4.7,10.5,10.5,10.5s10.5-4.7,10.5-10.5
		c0-2.7-1-5.2-2.7-7.1l1.1-1.1l3.6,0.7l5.8-5.8l-3.6-0.7l1-1l-0.7-0.7l-1,1l-0.7-3.5l-5.8,5.8l0.7,3.5
		C32.3,15.4,31.2,16.5,31.2,16.5z M33.7,24.3c0,5.2-4.3,9.5-9.5,9.5s-9.5-4.3-9.5-9.5s4.3-9.5,9.5-9.5c2.4,0,4.7,0.9,6.3,2.4
		L27.7,20c-1-0.8-2.2-1.3-3.5-1.3c-3,0-5.5,2.5-5.5,5.5s2.5,5.5,5.5,5.5s5.5-2.5,5.5-5.5c0-1.3-0.5-2.6-1.3-3.5l2.8-2.8
		C32.7,19.6,33.7,21.8,33.7,24.3z M24.4,24.8l3.3-3.3c0.6,0.8,1,1.7,1,2.8c0,2.5-2,4.5-4.5,4.5s-4.5-2-4.5-4.5s2-4.5,4.5-4.5
		c1.1,0,2,0.4,2.8,1l-3.3,3.3v0.7C23.7,24.8,24.4,24.8,24.4,24.8z M36.8,8.1l0.6,2.9l2.9,0.6l-4.1,4.1l-2.9-0.6l-0.6-2.9
		C32.7,12.2,36.8,8.1,36.8,8.1z"/>
	<path class="st0" d="M37.6,18.8c0.7,1.7,1.1,3.6,1.1,5.5c0,8-6.5,14.5-14.5,14.5S9.7,32.3,9.7,24.3S16.2,9.8,24.2,9.8
		c1.9,0,3.7,0.4,5.4,1.1l0.8-0.8c-1.9-0.8-4-1.3-6.2-1.3c-8.5,0-15.5,7-15.5,15.5s7,15.5,15.5,15.5s15.5-7,15.5-15.5
		c0-2.2-0.5-4.4-1.4-6.3C38.3,17.9,37.6,18.8,37.6,18.8z"/>
</g>
</svg>
