<?xml version="1.0" encoding="utf-8"?>
<!-- Generator: Adobe Illustrator 28.3.0, SVG Export Plug-In . SVG Version: 6.00 Build 0)  -->
<svg version="1.1" id="Capa_1" xmlns="http://www.w3.org/2000/svg" xmlns:xlink="http://www.w3.org/1999/xlink" x="0px" y="0px"
	 viewBox="0 0 48 48" style="enable-background:new 0 0 48 48;" xml:space="preserve">
<style type="text/css">
	.st0{fill-rule:evenodd;clip-rule:evenodd;fill:#FFFFFF;}
	.st1{fill:#FFFFFF;}
</style>
<g>
	<path class="st0" d="M24,24.5c-4.9,0-7.4-4.2-7.4-12.6c0-4.1,3.3-7.4,7.4-7.4s7.4,3.3,7.4,7.4C31.4,20.6,29.1,24.5,24,24.5z
		 M24,5.5c-3.5,0-6.4,2.9-6.4,6.4c0,7.7,2.2,11.6,6.4,11.6c3.2,0,6.4-1.4,6.4-11.6C30.4,8.4,27.5,5.5,24,5.5z"/>
	<path class="st1" d="M26.1,25.8L24,28.2l-2.1-2.5l-0.1-0.5L13.9,30h1.9l5.3-3.2L22,30h1l-0.5-1.9l1.5,1.7l1.5-1.7L24.9,30h1
		l0.9-3.2l5.3,3.2H34l-7.8-4.8L26.1,25.8z"/>
	<path class="st1" d="M20.5,33.5h-1v7h1V33.5z"/>
	<path class="st1" d="M17.5,34.5h1v5h-1V34.5z"/>
	<path class="st1" d="M16.5,35.5h-1v3h1V35.5z"/>
	<path class="st1" d="M21.5,34.5h1v5h-1V34.5z"/>
	<path class="st1" d="M24.5,35.5h-1v3h1V35.5z"/>
	<path class="st1" d="M27.5,33.5h1v7h-1V33.5z"/>
	<path class="st1" d="M26.5,34.5h-1v5h1V34.5z"/>
	<path class="st1" d="M29.5,34.5h1v5h-1V34.5z"/>
	<path class="st1" d="M32.5,35.5h-1v3h1V35.5z"/>
	<path class="st0" d="M7.5,31v12h33V31H7.5z M39.5,42h-31V32h31V42z"/>
</g>
</svg>
