<?xml version="1.0" encoding="utf-8"?>
<!-- Generator: Adobe Illustrator 28.3.0, SVG Export Plug-In . SVG Version: 6.00 Build 0)  -->
<svg version="1.1" id="Art_3.0" xmlns="http://www.w3.org/2000/svg" xmlns:xlink="http://www.w3.org/1999/xlink" x="0px" y="0px"
	 viewBox="0 0 48 48" style="enable-background:new 0 0 48 48;" xml:space="preserve">
<style type="text/css">
	.st0{fill:#FFFFFF;}
</style>
<g>
	<path class="st0" d="M37,27.5c-3.6,0-6.5,2.9-6.5,6.5s2.9,6.5,6.5,6.5s6.5-2.9,6.5-6.5S40.6,27.5,37,27.5z M37,39.5
		c-3,0-5.5-2.5-5.5-5.5s2.5-5.5,5.5-5.5s5.5,2.5,5.5,5.5S40,39.5,37,39.5z"/>
	<polygon class="st0" points="36,35.3 34,33.3 33.3,34 36,36.7 40.7,32 40,31.3 	"/>
	<path class="st0" d="M25.9,22.9c0.9,0,1.6-0.7,1.6-1.6s-0.7-1.6-1.6-1.6c-0.4,0-0.8,0.2-1.1,0.5L21,18.3c0-0.1,0-0.1,0-0.2
		c0-0.9-0.7-1.6-1.6-1.6s-1.6,0.7-1.6,1.6c0,0.1,0,0.1,0,0.2L14,20.2c-0.3-0.3-0.7-0.4-1.1-0.4c-0.9,0-1.6,0.7-1.6,1.6
		S12,23,12.9,23c0.2,0,0.3,0,0.4-0.1l1.1,1.7l0,0l0,0l-1.1,1.7c-0.1,0-0.3-0.1-0.4-0.1c-0.9,0-1.6,0.7-1.6,1.6s0.7,1.6,1.6,1.6
		c0.4,0,0.8-0.2,1.1-0.5l3.8,1.9c0,0.1,0,0.1,0,0.2c0,0.9,0.7,1.6,1.6,1.6S21,31.9,21,31c0-0.1,0-0.1,0-0.2l3.8-1.9
		c0.3,0.3,0.7,0.5,1.1,0.5c0.9,0,1.6-0.7,1.6-1.6s-0.7-1.6-1.6-1.6c-0.1,0-0.3,0-0.4,0.1l-1.1-1.7l0,0l0,0l1.1-1.7
		C25.7,22.8,25.8,22.9,25.9,22.9z M24.4,27.9L21,29.6l1.4-2.1l0.5-0.8l1.5,0.7c0,0.1,0,0.1,0,0.2S24.4,27.9,24.4,27.9z M14.6,27.5
		l1.5-0.7l1.9,2.9L14.6,28c0-0.1,0-0.1,0-0.2S14.6,27.6,14.6,27.5z M21,24.7c0-0.1,0-0.1,0-0.2s0-0.1,0-0.2l1.5-0.7l0.6,1l-0.6,1
		L21,24.7z M20.6,23.4c-0.2-0.2-0.4-0.3-0.6-0.4v-3.3l2,3L20.6,23.4z M19.5,25.1c-0.3,0-0.6-0.3-0.6-0.6c0-0.3,0.3-0.6,0.6-0.6
		s0.6,0.3,0.6,0.6C20.1,24.8,19.8,25.1,19.5,25.1z M16.5,25.5l-0.6-1l0.6-1l1.5,0.7c0,0.1,0,0.1,0,0.2s0,0.1,0,0.2
		C18,24.7,16.5,25.5,16.5,25.5z M18.4,23.4L17,22.7l2-3V23C18.8,23.1,18.6,23.2,18.4,23.4L18.4,23.4z M18.4,25.6
		c0.2,0.2,0.4,0.3,0.6,0.4v3.3l-2-3L18.4,25.6L18.4,25.6z M20,26c0.2-0.1,0.4-0.2,0.6-0.4l1.4,0.7l-2,3V26L20,26z M22.9,22.2
		L22.9,22.2L21,19.4l3.4,1.7c0,0.1,0,0.1,0,0.2s0,0.1,0,0.2C24.4,21.5,22.9,22.2,22.9,22.2z M16.1,22.2l-1.5-0.7c0-0.1,0-0.1,0-0.2
		s0-0.2,0-0.3l3.4-1.7L16.1,22.2z M25.9,20.7c0.3,0,0.6,0.3,0.6,0.6s-0.3,0.6-0.6,0.6c-0.3,0-0.6-0.3-0.6-0.6S25.6,20.7,25.9,20.7z
		 M19.5,17.5c0.3,0,0.6,0.3,0.6,0.6c0,0.3-0.3,0.6-0.6,0.6s-0.6-0.3-0.6-0.6S19.2,17.5,19.5,17.5z M12.5,21.3c0-0.3,0.3-0.6,0.6-0.6
		s0.6,0.3,0.6,0.6s-0.3,0.6-0.6,0.6S12.5,21.6,12.5,21.3z M14.5,22.6l1,0.5l0,0l0,0l-0.3,0.5L14.5,22.6L14.5,22.6z M15.2,25.4
		l0.3,0.5l0,0l0,0L15,26.2l-0.5,0.2C14.5,26.4,15.2,25.4,15.2,25.4z M13.1,28.3c-0.3,0-0.6-0.3-0.6-0.6s0.3-0.6,0.6-0.6
		s0.6,0.3,0.6,0.6S13.4,28.3,13.1,28.3z M19.5,31.5c-0.3,0-0.6-0.3-0.6-0.6c0-0.1,0-0.1,0-0.2v-0.1c0-0.1,0.1-0.1,0.2-0.2
		c0.1,0,0.1-0.1,0.1-0.1c0.1,0,0.1,0,0.2,0s0.1,0,0.2,0c0,0,0.1,0,0.1,0.1c0.1,0.1,0.2,0.1,0.2,0.2v0.1c0,0.1,0,0.1,0,0.2
		C20.1,31.2,19.8,31.5,19.5,31.5z M26.5,27.7c0,0.3-0.3,0.6-0.6,0.6c-0.3,0-0.6-0.3-0.6-0.6s0.3-0.6,0.6-0.6S26.5,27.4,26.5,27.7z
		 M24.5,26.4L24,26.2l-0.6-0.3l0,0l0,0l0.3-0.5C23.8,25.4,24.5,26.4,24.5,26.4z M23.4,23.1l1-0.5l-0.7,1
		C23.8,23.6,23.4,23.1,23.4,23.1z"/>
	<polygon class="st0" points="5.5,14.5 33.5,14.5 33.5,26.5 34.5,26.5 34.5,13.5 4.5,13.5 4.5,35.5 28.5,35.5 28.5,34.5 5.5,34.5 	
		"/>
	<polygon class="st0" points="36.5,24.5 37.5,24.5 37.5,10.6 7.5,10.6 7.5,11.6 36.5,11.6 	"/>
	<polygon class="st0" points="39.5,22.5 40.5,22.5 40.5,7.5 10.5,7.5 10.5,8.5 39.5,8.5 	"/>
</g>
</svg>
