<?xml version="1.0" encoding="utf-8"?>
<!-- Generator: Adobe Illustrator 28.3.0, SVG Export Plug-In . SVG Version: 6.00 Build 0)  -->
<svg version="1.1" id="Note" xmlns="http://www.w3.org/2000/svg" xmlns:xlink="http://www.w3.org/1999/xlink" x="0px" y="0px"
	 viewBox="0 0 48 48" style="enable-background:new 0 0 48 48;" xml:space="preserve">
<style type="text/css">
	.st0{fill:#FFFFFF;}
</style>
<path class="st0" d="M34.7,33.5l-1.1,4H14.4l-1.1-4H8.5l2.1,8h26.8l2.3-8H34.7L34.7,33.5z M36.6,40.5H11.4l-1.6-6h2.8l1.1,4h20.8
	l1.1-4h2.9L36.6,40.5z M37.1,19.5h-6.6v-5h-13v5h-6.6L24,34.8L37.1,19.5z M18.5,20.5v-5h11v5h5.4L24,33.2L13.1,20.5H18.5z M30.5,6.5
	h-13v6h13V6.5z M29.5,11.5h-11v-4h11V11.5z"/>
</svg>
