<?xml version="1.0" encoding="utf-8"?>
<!-- Generator: Adobe Illustrator 28.3.0, SVG Export Plug-In . SVG Version: 6.00 Build 0)  -->
<svg version="1.1" id="Art_3.0" xmlns="http://www.w3.org/2000/svg" xmlns:xlink="http://www.w3.org/1999/xlink" x="0px" y="0px"
	 viewBox="0 0 48 48" style="enable-background:new 0 0 48 48;" xml:space="preserve">
<style type="text/css">
	.st0{fill:#FFFFFF;}
</style>
<g>
	<path class="st0" d="M42.5,33.5v-23h-37v23h14.8l-0.8,3h-3v1h15v-1h-3l-0.8-3H42.5z M6.5,11.5h35v21h-35V11.5z M27.4,36.5h-6.8
		l0.8-3h5.2L27.4,36.5z"/>
	<path class="st0" d="M24,25.5c3,0,5.5-2.5,5.5-5.5S27,14.5,24,14.5S18.5,17,18.5,20S21,25.5,24,25.5z M24,15.5c2.5,0,4.5,2,4.5,4.5
		s-2,4.5-4.5,4.5s-4.5-2-4.5-4.5S21.5,15.5,24,15.5z"/>
	<polygon class="st0" points="15.5,25.5 14.5,25.5 14.5,26.5 12.5,26.5 12.5,27.5 14.5,27.5 14.5,28.5 15.5,28.5 15.5,27.5 
		35.5,27.5 35.5,26.5 15.5,26.5 	"/>
	<path class="st0" d="M22.5,17.1V23l4.4-2.9L22.5,17.1z M23.5,18.9l1.6,1.1l-1.6,1.1V18.9z"/>
</g>
</svg>
