<?xml version="1.0" encoding="utf-8"?>
<!-- Generator: Adobe Illustrator 28.3.0, SVG Export Plug-In . SVG Version: 6.00 Build 0)  -->
<svg version="1.1" id="Capa_1" xmlns="http://www.w3.org/2000/svg" xmlns:xlink="http://www.w3.org/1999/xlink" x="0px" y="0px"
	 viewBox="0 0 24 24" style="enable-background:new 0 0 24 24;" xml:space="preserve">
<style type="text/css">
	.st0{fill:#595959;stroke:#595959;stroke-width:1.5;stroke-linecap:round;stroke-linejoin:round;}
	.st1{fill:none;stroke:#595959;stroke-width:1.5;}
</style>
<path class="st0" d="M14,12l-3.5,2v-4L14,12z"/>
<path class="st1" d="M2,12.7v-1.4C2,8.4,2,6.9,2.9,6s2.3-1,5.2-1c1.4,0,2.7-0.1,3.9-0.1s2.6,0,3.9,0.1c2.9,0,4.3,0.1,5.2,1
	S22,8.4,22,11.3v1.4c0,2.9,0,4.3-0.9,5.3c-0.9,0.9-2.3,1-5.2,1.1c-1.4,0-2.7,0.1-3.9,0.1s-2.6,0-3.9-0.1C5.2,19,3.8,18.9,2.9,18
	S2,15.6,2,12.7z"/>
</svg>
